<svg width="1360" height="980" viewBox="0 0 1360 980" fill="none" xmlns="http://www.w3.org/2000/svg">
  <rect width="1360" height="980" fill="#F3F0E8"/>
  <rect x="48" y="34" width="1264" height="912" rx="34" fill="#FCFBF8" stroke="#D8D0C2"/>
  <text x="90" y="92" fill="#18241D" font-family="Segoe UI, Arial, sans-serif" font-size="34" font-weight="700">Propuesta recomendada para Mis tickets</text>
  <text x="90" y="126" fill="#5F6B62" font-family="Segoe UI, Arial, sans-serif" font-size="18">Combina historial claro + boton Responder local + caja fija abajo para no perder la accion principal.</text>

  <text x="90" y="188" fill="#1D2B22" font-family="Segoe UI, Arial, sans-serif" font-size="20" font-weight="700">2026-000001</text>
  <text x="90" y="228" fill="#142219" font-family="Segoe UI, Arial, sans-serif" font-size="38" font-weight="700">Test admin 10</text>
  <rect x="90" y="254" width="148" height="42" rx="18" fill="#DDE9F3"/>
  <text x="122" y="281" fill="#16364A" font-family="Segoe UI, Arial, sans-serif" font-size="19" font-weight="700">Repetir ticket</text>
  <rect x="252" y="254" width="170" height="42" rx="18" fill="#DDE9F3"/>
  <text x="286" y="281" fill="#16364A" font-family="Segoe UI, Arial, sans-serif" font-size="19" font-weight="700">Pantalla completa</text>

  <rect x="90" y="330" width="164" height="46" rx="23" fill="#0D7A5B"/>
  <text x="137" y="359" fill="#FFFFFF" font-family="Segoe UI, Arial, sans-serif" font-size="20" font-weight="700">Comentarios</text>
  <rect x="268" y="330" width="128" height="46" rx="23" fill="#EEF3EE" stroke="#C8D2CA"/>
  <text x="310" y="359" fill="#274136" font-family="Segoe UI, Arial, sans-serif" font-size="20" font-weight="700">Detalles</text>
  <rect x="410" y="330" width="136" height="46" rx="23" fill="#EEF3EE" stroke="#C8D2CA"/>
  <text x="452" y="359" fill="#274136" font-family="Segoe UI, Arial, sans-serif" font-size="20" font-weight="700">Adjuntos</text>

  <rect x="90" y="404" width="1180" height="430" rx="28" fill="#FFFFFF" stroke="#D9DED8"/>
  <rect x="114" y="430" width="1132" height="58" rx="18" fill="#EDF2EE"/>
  <text x="142" y="467" fill="#1E3A2E" font-family="Segoe UI, Arial, sans-serif" font-size="22" font-weight="700">Historial de comentarios</text>
  <text x="985" y="467" fill="#59675F" font-family="Segoe UI, Arial, sans-serif" font-size="18">Buscar</text>
  <text x="1075" y="467" fill="#59675F" font-family="Segoe UI, Arial, sans-serif" font-size="18">Mas recientes</text>

  <rect x="114" y="510" width="1132" height="132" rx="22" fill="#F8FAF7" stroke="#D9DED8"/>
  <text x="144" y="548" fill="#28463A" font-family="Segoe UI, Arial, sans-serif" font-size="18" font-weight="700">11/05/2026, 17:55 · admin</text>
  <rect x="344" y="528" width="86" height="26" rx="13" fill="#E4F1E8"/>
  <text x="368" y="546" fill="#1F7B44" font-family="Segoe UI, Arial, sans-serif" font-size="14" font-weight="700">Publico</text>
  <text x="1188" y="548" fill="#718077" font-family="Segoe UI, Arial, sans-serif" font-size="24">...</text>
  <text x="144" y="590" fill="#1F2A22" font-family="Segoe UI, Arial, sans-serif" font-size="26">Hola</text>
  <line x1="144" y1="606" x2="1216" y2="606" stroke="#E4E8E3"/>
  <rect x="144" y="620" width="118" height="34" rx="17" fill="#0D7A5B"/>
  <text x="177" y="642" fill="#FFFFFF" font-family="Segoe UI, Arial, sans-serif" font-size="17" font-weight="700">Responder</text>
  <text x="288" y="642" fill="#617067" font-family="Segoe UI, Arial, sans-serif" font-size="17">Adjuntar archivo</text>
  <text x="430" y="642" fill="#617067" font-family="Segoe UI, Arial, sans-serif" font-size="17">Copiar texto</text>

  <rect x="114" y="664" width="1132" height="146" rx="22" fill="#FFFFFF" stroke="#D9DED8"/>
  <text x="144" y="702" fill="#28463A" font-family="Segoe UI, Arial, sans-serif" font-size="18" font-weight="700">12/05/2026, 09:10 · tu</text>
  <text x="144" y="744" fill="#1F2A22" font-family="Segoe UI, Arial, sans-serif" font-size="26">Adjunto la documentacion</text>
  <rect x="144" y="764" width="174" height="28" rx="14" fill="#EEF2F6"/>
  <text x="170" y="782" fill="#3D5568" font-family="Segoe UI, Arial, sans-serif" font-size="14" font-weight="700">2 adjuntos en el comentario</text>

  <rect x="90" y="854" width="1180" height="64" rx="24" fill="#EEF3EE" stroke="#C8D2CA"/>
  <text x="122" y="894" fill="#5E6D64" font-family="Segoe UI, Arial, sans-serif" font-size="23">Escribe una respuesta o pulsa Responder en el comentario que quieras contestar...</text>
  <rect x="1032" y="868" width="102" height="36" rx="18" fill="#DCE7E0"/>
  <text x="1060" y="891" fill="#274437" font-family="Segoe UI, Arial, sans-serif" font-size="16" font-weight="700">Adjuntar</text>
  <rect x="1148" y="862" width="98" height="46" rx="23" fill="#0D7A5B"/>
  <text x="1176" y="891" fill="#FFFFFF" font-family="Segoe UI, Arial, sans-serif" font-size="18" font-weight="700">Enviar</text>
</svg>